<svg width="1024" height="1024" viewBox="0 0 160 160" fill="none" xmlns="http://www.w3.org/2000/svg">
    <rect width="160" height="160" rx="36" fill="#0f172a"/>
    <!-- Stylized Digital Fingerprint (API Signatures) -->
    <g>
        <path d="M80 40C50 40 40 70 40 80M80 55C65 55 55 75 55 80M80 70C75 70 70 75 70 80" stroke="#818cf8" stroke-width="6" stroke-linecap="round"/>
        <path d="M80 40C110 40 120 70 120 80M80 55C95 55 105 75 105 80M80 70C85 70 90 75 90 80" stroke="#818cf8" stroke-width="6" stroke-linecap="round" stroke-opacity="0.6"/>
        <!-- Scanner Pulse / Base -->
        <rect x="75" y="90" width="10" height="40" rx="5" fill="#818cf8"/>
        <!-- Subtle Glow Filter Effect (Applied via styles if needed, but here simple is better for icons) -->
        <circle cx="80" cy="80" r="5" fill="#22d3ee" fill-opacity="0.8"/>
    </g>
</svg>
